<svg xmlns="http://www.w3.org/2000/svg" viewBox="0 0 840 470"><defs><linearGradient id="g" x1="0" y1="0" x2="1" y2="1"><stop stop-color="#071c22"/><stop offset="1" stop-color="#0d5a68"/></linearGradient><pattern id="p" width="34" height="34" patternUnits="userSpaceOnUse"><path d="M34 0H0v34" fill="none" stroke="#46d0b3" stroke-opacity=".07"/></pattern></defs><rect width="840" height="470" fill="url(#g)"/><rect width="840" height="470" fill="url(#p)"/><rect x="85" y="65" width="670" height="315" rx="10" fill="none" stroke="#46d0b3" stroke-width="10"/><path d="M120 270c70-90 110 80 170-15s120 75 180-10 120 60 230-80" fill="none" stroke="#c70e2f" stroke-width="8"/><g fill="#46d0b3"><circle cx="150" cy="120" r="8"/><circle cx="240" cy="175" r="8"/><circle cx="330" cy="230" r="8"/><circle cx="420" cy="120" r="8"/><circle cx="510" cy="175" r="8"/><circle cx="600" cy="230" r="8"/><circle cx="690" cy="120" r="8"/></g><rect y="300" width="840" height="170" fill="url(#fade)" opacity=".3"/><text x="790" y="400" direction="rtl" text-anchor="end" fill="#fff" font-size="34" font-family="Tahoma,Arial" font-weight="700">مرکز کنترل آینده</text><text x="790" y="438" direction="rtl" text-anchor="end" fill="#d7e2ec" font-size="18" font-family="Tahoma,Arial">داده، اتوماسیون و عملیات</text><rect x="760" y="32" width="48" height="8" fill="#c70e2f"/></svg>